<svg width="51" height="45" viewBox="0 0 51 45" fill="none" xmlns="http://www.w3.org/2000/svg">
<path d="M50.1563 28.0312C50.1563 28.5202 49.962 28.9892 49.6163 29.335C49.2705 29.6807 48.8015 29.875 48.3125 29.875H44.625V33.5625C44.625 34.0515 44.4308 34.5205 44.085 34.8662C43.7392 35.212 43.2703 35.4062 42.7813 35.4062C42.2923 35.4062 41.8233 35.212 41.4776 34.8662C41.1318 34.5205 40.9375 34.0515 40.9375 33.5625V29.875H37.25C36.761 29.875 36.2921 29.6807 35.9463 29.335C35.6005 28.9892 35.4063 28.5202 35.4063 28.0312C35.4063 27.5423 35.6005 27.0733 35.9463 26.7275C36.2921 26.3818 36.761 26.1875 37.25 26.1875H40.9375V22.5C40.9375 22.011 41.1318 21.542 41.4776 21.1963C41.8233 20.8505 42.2923 20.6562 42.7813 20.6562C43.2703 20.6562 43.7392 20.8505 44.085 21.1963C44.4308 21.542 44.625 22.011 44.625 22.5V26.1875H48.3125C48.8015 26.1875 49.2705 26.3818 49.6163 26.7275C49.962 27.0733 50.1563 27.5423 50.1563 28.0312ZM5.90629 9.59375H9.59379V13.2812C9.59379 13.7702 9.78804 14.2392 10.1338 14.585C10.4796 14.9307 10.9485 15.125 11.4375 15.125C11.9265 15.125 12.3955 14.9307 12.7413 14.585C13.087 14.2392 13.2813 13.7702 13.2813 13.2812V9.59375H16.9688C17.4578 9.59375 17.9267 9.3995 18.2725 9.05373C18.6183 8.70796 18.8125 8.23899 18.8125 7.75C18.8125 7.26101 18.6183 6.79204 18.2725 6.44627C17.9267 6.1005 17.4578 5.90625 16.9688 5.90625H13.2813V2.21875C13.2813 1.72976 13.087 1.26079 12.7413 0.915022C12.3955 0.569252 11.9265 0.375 11.4375 0.375C10.9485 0.375 10.4796 0.569252 10.1338 0.915022C9.78804 1.26079 9.59379 1.72976 9.59379 2.21875V5.90625H5.90629C5.4173 5.90625 4.94833 6.1005 4.60256 6.44627C4.25679 6.79204 4.06254 7.26101 4.06254 7.75C4.06254 8.23899 4.25679 8.70796 4.60256 9.05373C4.94833 9.3995 5.4173 9.59375 5.90629 9.59375ZM35.4063 37.25H33.5625V35.4062C33.5625 34.9173 33.3683 34.4483 33.0225 34.1025C32.6767 33.7568 32.2078 33.5625 31.7188 33.5625C31.2298 33.5625 30.7608 33.7568 30.4151 34.1025C30.0693 34.4483 29.875 34.9173 29.875 35.4062V37.25H28.0313C27.5423 37.25 27.0733 37.4443 26.7276 37.79C26.3818 38.1358 26.1875 38.6048 26.1875 39.0938C26.1875 39.5827 26.3818 40.0517 26.7276 40.3975C27.0733 40.7432 27.5423 40.9375 28.0313 40.9375H29.875V42.7812C29.875 43.2702 30.0693 43.7392 30.4151 44.085C30.7608 44.4307 31.2298 44.625 31.7188 44.625C32.2078 44.625 32.6767 44.4307 33.0225 44.085C33.3683 43.7392 33.5625 43.2702 33.5625 42.7812V40.9375H35.4063C35.8953 40.9375 36.3642 40.7432 36.71 40.3975C37.0558 40.0517 37.25 39.5827 37.25 39.0938C37.25 38.6048 37.0558 38.1358 36.71 37.79C36.3642 37.4443 35.8953 37.25 35.4063 37.25ZM43.5441 11.4375L11.4375 43.5441C10.7461 44.2351 9.80851 44.6233 8.83094 44.6233C7.85337 44.6233 6.91581 44.2351 6.22434 43.5441L1.45363 38.778C1.11113 38.4356 0.839433 38.029 0.654066 37.5816C0.468699 37.1342 0.373291 36.6546 0.373291 36.1703C0.373291 35.6859 0.468699 35.2064 0.654066 34.7589C0.839433 34.3115 1.11113 33.9049 1.45363 33.5625L33.5625 1.4559C33.905 1.11339 34.3115 0.841699 34.759 0.656332C35.2064 0.470965 35.686 0.375557 36.1703 0.375557C36.6546 0.375557 37.1342 0.470965 37.5816 0.656332C38.0291 0.841699 38.4356 1.11339 38.778 1.4559L43.5441 6.22199C43.8866 6.56442 44.1583 6.97096 44.3437 7.41841C44.5291 7.86585 44.6245 8.34543 44.6245 8.82975C44.6245 9.31407 44.5291 9.79364 44.3437 10.2411C44.1583 10.6885 43.8866 11.0951 43.5441 11.4375ZM30.9536 18.8125L26.1875 14.0441L4.06254 36.1691L8.82863 40.9375L30.9536 18.8125ZM40.9375 8.8309L36.1691 4.0625L28.7941 11.4375L33.5625 16.2059L40.9375 8.8309Z" fill="#AAA9A5"/>
</svg>
