<svg width="16" height="15" viewBox="0 0 16 15" fill="none" xmlns="http://www.w3.org/2000/svg">
<path d="M15.942 5.64302C15.8705 5.42949 15.7357 5.2413 15.5544 5.10215C15.3731 4.963 15.1535 4.87911 14.9233 4.86107L10.7088 4.53051L9.08151 0.704772C8.99351 0.49631 8.84373 0.317996 8.65122 0.192501C8.45871 0.0670069 8.23216 0 8.00037 0C7.76859 0 7.54204 0.0670069 7.34952 0.192501C7.15701 0.317996 7.00723 0.49631 6.91923 0.704772L5.29341 4.52981L1.0767 4.86107C0.8461 4.88003 0.626381 4.96472 0.445072 5.10454C0.263764 5.24437 0.128931 5.43309 0.0574656 5.64708C-0.0139996 5.86107 -0.0189184 6.09081 0.0433255 6.3075C0.105569 6.5242 0.232208 6.71822 0.407374 6.86525L3.62187 9.56181L2.64252 13.5938C2.58775 13.8128 2.60116 14.0428 2.68105 14.2544C2.76094 14.466 2.90371 14.6498 3.09124 14.7824C3.27876 14.915 3.50258 14.9904 3.73429 14.9992C3.966 15.0079 4.19514 14.9494 4.39264 14.8313L8.00002 12.673L11.6095 14.8313C11.8071 14.948 12.0358 15.0053 12.2668 14.996C12.4978 14.9866 12.7207 14.911 12.9076 14.7787C13.0945 14.6464 13.2369 14.4633 13.317 14.2524C13.3971 14.0416 13.4112 13.8124 13.3575 13.5938L12.3746 9.56112L15.5891 6.86456C15.7657 6.71777 15.8935 6.52333 15.9563 6.30587C16.0191 6.08841 16.0141 5.85772 15.942 5.64302ZM14.8462 6.02288L11.3674 8.93958C11.288 9.00606 11.229 9.09245 11.1968 9.18933C11.1645 9.2862 11.1603 9.38983 11.1845 9.48889L12.2474 13.85C12.2502 13.8561 12.2505 13.8629 12.2482 13.8691C12.2459 13.8753 12.2413 13.8804 12.2353 13.8834C12.2224 13.8931 12.2189 13.891 12.2081 13.8834L8.29932 11.5466C8.2093 11.4927 8.10569 11.4643 8.00002 11.4643C7.89434 11.4643 7.79073 11.4927 7.70071 11.5466L3.79188 13.8848C3.78117 13.891 3.77831 13.8931 3.76474 13.8848C3.75871 13.8818 3.75409 13.8767 3.75183 13.8705C3.74957 13.8643 3.74984 13.8575 3.75259 13.8514L4.81552 9.49028C4.83975 9.39122 4.8355 9.28759 4.80325 9.19072C4.771 9.09384 4.71199 9.00745 4.63265 8.94097L1.15385 6.02427C1.14528 6.01733 1.13742 6.01108 1.14457 5.98955C1.15171 5.96802 1.15742 5.9708 1.16814 5.96941L5.73415 5.61107C5.83888 5.60234 5.9391 5.5657 6.02379 5.50517C6.10848 5.44465 6.17436 5.36259 6.21418 5.26801L7.97287 1.12839C7.97859 1.11658 7.98073 1.11103 7.99787 1.11103C8.01502 1.11103 8.01716 1.11658 8.02287 1.12839L9.78585 5.26801C9.82604 5.36262 9.89234 5.44459 9.97742 5.50488C10.0625 5.56518 10.1631 5.60144 10.268 5.60968L14.834 5.96802C14.8448 5.96802 14.8512 5.96802 14.8576 5.98816C14.864 6.0083 14.8576 6.01594 14.8462 6.02288Z" fill="#85837D"/>
</svg>
