<svg width="11" height="8" viewBox="0 0 11 8" fill="none" xmlns="http://www.w3.org/2000/svg">
<path d="M10.6145 3.40012C10.5986 3.36531 10.2222 2.52957 9.39071 1.69812C8.27825 0.587383 6.87618 0 5.3293 0C3.78243 0 2.38036 0.587383 1.26918 1.69812C0.437738 2.52957 0.061332 3.36531 0.0441445 3.40012C0.0150345 3.46612 0 3.53746 0 3.60959C0 3.68172 0.0150345 3.75306 0.0441445 3.81906C0.060043 3.8543 0.436449 4.68961 1.26832 5.52105C2.38036 6.6318 3.78243 7.21875 5.3293 7.21875C6.87618 7.21875 8.27825 6.6318 9.38899 5.52105C10.2209 4.68961 10.5973 3.8543 10.6132 3.81906C10.6425 3.75315 10.6577 3.68186 10.658 3.60973C10.6582 3.53759 10.6434 3.4662 10.6145 3.40012ZM8.63532 4.81809C7.71278 5.72645 6.60075 6.1875 5.3293 6.1875C4.05786 6.1875 2.94582 5.72645 2.02457 4.81766C1.66207 4.45896 1.35024 4.05245 1.09774 3.60938C1.35031 3.16648 1.66213 2.76011 2.02457 2.40152C2.94625 1.4923 4.05786 1.03125 5.3293 1.03125C6.60075 1.03125 7.71235 1.4923 8.63403 2.40152C8.9965 2.76008 9.30833 3.16645 9.56086 3.60938C9.30832 4.05242 8.9965 4.45893 8.63403 4.81766L8.63532 4.81809ZM5.3293 1.71875C4.95537 1.71875 4.58984 1.82963 4.27893 2.03738C3.96801 2.24512 3.72569 2.5404 3.58259 2.88586C3.43949 3.23133 3.40205 3.61147 3.475 3.97822C3.54795 4.34496 3.72802 4.68184 3.99243 4.94625C4.25684 5.21066 4.59371 5.39072 4.96046 5.46367C5.3272 5.53662 5.70735 5.49918 6.05281 5.35608C6.39828 5.21299 6.69355 4.97066 6.9013 4.65975C7.10904 4.34884 7.21993 3.98331 7.21993 3.60938C7.21936 3.10812 7.01998 2.62757 6.66555 2.27313C6.31111 1.91869 5.83055 1.71932 5.3293 1.71875ZM5.3293 4.46875C5.15933 4.46875 4.99318 4.41835 4.85186 4.32392C4.71053 4.22949 4.60039 4.09527 4.53534 3.93824C4.4703 3.78121 4.45328 3.60842 4.48644 3.44172C4.5196 3.27502 4.60145 3.12189 4.72163 3.00171C4.84182 2.88152 4.99494 2.79967 5.16164 2.76651C5.32835 2.73335 5.50114 2.75037 5.65817 2.81542C5.8152 2.88046 5.94942 2.99061 6.04384 3.13193C6.13827 3.27326 6.18868 3.43941 6.18868 3.60938C6.18868 3.8373 6.09813 4.05588 5.93697 4.21704C5.77581 4.37821 5.55722 4.46875 5.3293 4.46875Z" fill="#7D7C77"/>
</svg>
